{
  "source": "C:\\Users\\Peter\\Desktop\\stuff\\MIUN\\quantitative_research\\video_compression\\videos\\BVI-HD\\BVI-HD_CDVL_videos\\ORIG\\Hamster_1920x1080_60fps.mp4",
  "output": "C:\\Users\\Peter\\Desktop\\stuff\\MIUN\\quantitative_research\\video_compression\\compressed_videos\\BVI-HD\\av1\\8\\Hamster_1920x1080_60fps_av1.mkv",
  "codec": "av1",
  "ok": "Input #0, mov,mp4,m4a,3gp,3g2,mj2, from 'C:\\Users\\Peter\\Desktop\\stuff\\MIUN\\quantitative_research\\video_compression\\videos\\BVI-HD\\BVI-HD_CDVL_videos\\ORIG\\Hamster_1920x1080_60fps.mp4':\n  Metadata:\n    major_brand     : isom\n    minor_version   : 512\n    compatible_brands: isomiso2avc1mp41\n    encoder         : Lavf54.28.101\n  Duration: 00:00:05.00, start: 0.000000, bitrate: 208485 kb/s\n  Stream #0:0[0x1](und): Video: h264 (High 4:4:4 Predictive) (avc1 / 0x31637661), yuv420p(progressive), 1920x1080, 208481 kb/s, 60 fps, 60 tbr, 60 tbn (default)\n    Metadata:\n      handler_name    : VideoHandler\n      vendor_id       : [0][0][0][0]\n[out#0/matroska @ 00000136a9799780] Codec AVOption b:a (set bitrate (in bits/s)) has not been used for any stream. The most likely reason is either wrong type (e.g. a video option with no video streams) or that it is a private option of some decoder which was not actually used for any stream.\nStream mapping:\n  Stream #0:0 -> #0:0 (h264 (native) -> av1 (libsvtav1))\nPress [q] to stop, [?] for help\nSvt[info]: -------------------------------------------\nSvt[info]: SVT [version]:\tSVT-AV1 Encoder Lib v3.1.0-19-g6ecfe8ec\nSvt[info]: SVT [build]  :\tGCC 15.2.0\t 64 bit\nSvt[info]: LIB Build date: Aug 17 2025 11:37:13\nSvt[info]: -------------------------------------------\nSvt[info]: Level of Parallelism: 5\nSvt[info]: Number of PPCS 93\nSvt[info]: [asm level on system : up to avx2]\nSvt[info]: [asm level selected : up to avx2]\nSvt[info]: -------------------------------------------\nSvt[info]: SVT [config]: main profile\ttier (auto)\tlevel (auto)\nSvt[info]: SVT [config]: width / height / fps numerator / fps denominator \t\t: 1920 / 1080 / 60 / 1\nSvt[info]: SVT [config]: bit-depth / color format \t\t\t\t\t: 8 / YUV420\nSvt[info]: SVT [config]: preset / tune / pred struct \t\t\t\t\t: 4 / PSNR / random access\nSvt[info]: SVT [config]: gop size / mini-gop size / key-frame type \t\t\t: 321 / 16 / key frame\nSvt[info]: SVT [config]: BRC mode / target bitrate (kbps)\t\t\t\t: VBR / 8000 \nSvt[info]: SVT [config]: AQ mode / Variance Boost \t\t\t\t\t: 2 / 0\nSvt[info]: SVT [config]: sharpness / luminance-based QP bias \t\t\t\t: 0 / 0\nSvt[info]: SVT [config]: QP scale compress strength \t\t\t\t\t: 0\nSvt[info]: -------------------------------------------\nOutput #0, matroska, to 'C:\\Users\\Peter\\Desktop\\stuff\\MIUN\\quantitative_research\\video_compression\\compressed_videos\\BVI-HD\\av1\\8\\Hamster_1920x1080_60fps_av1.mkv':\n  Metadata:\n    major_brand     : isom\n    minor_version   : 512\n    compatible_brands: isomiso2avc1mp41\n    encoder         : Lavf62.3.100\n  Stream #0:0(und): Video: av1 (AV01 / 0x31305641), yuv420p(tv, progressive), 1920x1080, q=2-31, 8000 kb/s, 60 fps, 1k tbn (default)\n    Metadata:\n      encoder         : Lavc62.11.100 libsvtav1\n      handler_name    : VideoHandler\n      vendor_id       : [0][0][0][0]\n    Side data:\n      cpb: bitrate max/min/avg: 0/0/8000000 buffer size: 8000000 vbv_delay: N/A\nframe=    0 fps=0.0 q=0.0 size=       0KiB time=N/A bitrate=N/A speed=N/A elapsed=0:00:00.51    \nframe=    0 fps=0.0 q=0.0 size=       0KiB time=N/A bitrate=N/A speed=N/A elapsed=0:00:01.03    \nframe=    0 fps=0.0 q=0.0 size=       0KiB time=N/A bitrate=N/A speed=N/A elapsed=0:00:01.54    \nframe=    0 fps=0.0 q=0.0 size=       0KiB time=N/A bitrate=N/A speed=N/A elapsed=0:00:02.05    \nframe=    0 fps=0.0 q=0.0 size=       0KiB time=N/A bitrate=N/A speed=N/A elapsed=0:00:02.57    \nframe=    0 fps=0.0 q=0.0 size=       0KiB time=N/A bitrate=N/A speed=N/A elapsed=0:00:03.10    \nframe=    1 fps=0.3 q=4.0 size=       1KiB time=00:00:00.00 bitrate=N/A speed=   0x elapsed=0:00:03.62    \nframe=    1 fps=0.2 q=4.0 size=       1KiB time=00:00:00.00 bitrate=N/A speed=   0x elapsed=0:00:04.13    \nframe=    4 fps=0.9 q=26.0 size=       1KiB time=00:00:00.05 bitrate= 113.9kbits/s speed=0.0107x elapsed=0:00:04.66    \nframe=    6 fps=1.2 q=26.0 size=       1KiB time=00:00:00.08 bitrate=  68.4kbits/s speed=0.0161x elapsed=0:00:05.19    \nframe=    9 fps=1.6 q=18.0 size=       1KiB time=00:00:00.13 bitrate=  42.7kbits/s speed=0.0234x elapsed=0:00:05.69    \nframe=   13 fps=2.1 q=18.0 size=       1KiB time=00:00:00.18 bitrate=  31.1kbits/s speed=0.0295x elapsed=0:00:06.21    \nframe=   17 fps=2.5 q=10.0 size=       1KiB time=00:00:00.26 bitrate=  21.4kbits/s speed=0.0396x elapsed=0:00:06.74    \nframe=   19 fps=2.6 q=21.0 size=       1KiB time=00:00:00.30 bitrate=  19.0kbits/s speed=0.0413x elapsed=0:00:07.26    \nframe=   22 fps=2.8 q=18.0 size=       1KiB time=00:00:00.35 bitrate=  16.3kbits/s speed=0.045x elapsed=0:00:07.77    \nframe=   25 fps=3.0 q=16.0 size=       1KiB time=00:00:00.40 bitrate=  14.2kbits/s speed=0.0481x elapsed=0:00:08.31    \nframe=   27 fps=3.0 q=21.0 size=       1KiB time=00:00:00.43 bitrate=  13.1kbits/s speed=0.0489x elapsed=0:00:08.85    \nframe=   32 fps=3.4 q=20.0 size=       1KiB time=00:00:00.51 bitrate=  11.0kbits/s speed=0.0552x elapsed=0:00:09.36    \nframe=   34 fps=3.4 q=21.0 size=       1KiB time=00:00:00.55 bitrate=  10.4kbits/s speed=0.0556x elapsed=0:00:09.88    \nframe=   36 fps=3.5 q=21.0 size=       1KiB time=00:00:00.58 bitrate=   9.8kbits/s speed=0.056x elapsed=0:00:10.40    \nframe=   39 fps=3.6 q=22.0 size=       1KiB time=00:00:00.63 bitrate=   9.0kbits/s speed=0.058x elapsed=0:00:10.92    \nframe=   41 fps=3.6 q=16.0 size=       1KiB time=00:00:00.66 bitrate=   8.5kbits/s speed=0.0583x elapsed=0:00:11.44    \nframe=   43 fps=3.6 q=22.0 size=       1KiB time=00:00:00.70 bitrate=   8.1kbits/s speed=0.0583x elapsed=0:00:12.01    \nframe=   49 fps=3.9 q=8.0 size=       1KiB time=00:00:00.80 bitrate=   7.1kbits/s speed=0.0638x elapsed=0:00:12.54    \nframe=   51 fps=3.9 q=24.0 size=       1KiB time=00:00:00.83 bitrate=   6.8kbits/s speed=0.0637x elapsed=0:00:13.07    \nframe=   54 fps=4.0 q=22.0 size=       1KiB time=00:00:00.88 bitrate=   6.4kbits/s speed=0.065x elapsed=0:00:13.58    \nframe=   56 fps=4.0 q=22.0 size=       1KiB time=00:00:00.91 bitrate=   6.2kbits/s speed=0.065x elapsed=0:00:14.11    \nframe=   59 fps=4.0 q=24.0 size=       1KiB time=00:00:00.96 bitrate=   5.9kbits/s speed=0.0661x elapsed=0:00:14.62    \nframe=   62 fps=4.1 q=19.0 size=       1KiB time=00:00:01.01 bitrate=   5.6kbits/s speed=0.0671x elapsed=0:00:15.14    \nframe=   65 fps=4.2 q=5.0 size=       1KiB time=00:00:01.06 bitrate=   5.3kbits/s speed=0.0681x elapsed=0:00:15.65    \nframe=   68 fps=4.2 q=18.0 size=       1KiB time=00:00:01.11 bitrate=   5.1kbits/s speed=0.069x elapsed=0:00:16.17    \nframe=   70 fps=4.2 q=21.0 size=       1KiB time=00:00:01.15 bitrate=   5.0kbits/s speed=0.0689x elapsed=0:00:16.69    \nframe=   74 fps=4.3 q=22.0 size=       1KiB time=00:00:01.21 bitrate=   4.7kbits/s speed=0.0707x elapsed=0:00:17.21    \nframe=   78 fps=4.4 q=23.0 size=       1KiB time=00:00:01.28 bitrate=   4.4kbits/s speed=0.0722x elapsed=0:00:17.76    \nframe=   82 fps=4.5 q=23.0 size=       1KiB time=00:00:01.35 bitrate=   4.2kbits/s speed=0.0738x elapsed=0:00:18.29    \nframe=   86 fps=4.6 q=24.0 size=       1KiB time=00:00:01.41 bitrate=   4.0kbits/s speed=0.0752x elapsed=0:00:18.84    \nframe=   89 fps=4.6 q=12.0 size=       1KiB time=00:00:01.46 bitrate=   3.9kbits/s speed=0.0757x elapsed=0:00:19.38    \nframe=   93 fps=4.7 q=18.0 size=       1KiB time=00:00:01.53 bitrate=   3.7kbits/s speed=0.077x elapsed=0:00:19.91    \nframe=   98 fps=4.8 q=24.0 size=       1KiB time=00:00:01.61 bitrate=   3.5kbits/s speed=0.0791x elapsed=0:00:20.45    \nframe=  101 fps=4.8 q=18.0 size=       1KiB time=00:00:01.66 bitrate=   3.4kbits/s speed=0.0795x elapsed=0:00:20.96    \nframe=  103 fps=4.8 q=18.0 size=       1KiB time=00:00:01.70 bitrate=   3.4kbits/s speed=0.0791x elapsed=0:00:21.48    \nframe=  107 fps=4.9 q=21.0 size=       1KiB time=00:00:01.76 bitrate=   3.2kbits/s speed=0.0803x elapsed=0:00:21.99    \nframe=  113 fps=5.0 q=2.0 size=       1KiB time=00:00:01.86 bitrate=   3.1kbits/s speed=0.0829x elapsed=0:00:22.52    \nframe=  115 fps=5.0 q=21.0 size=       1KiB time=00:00:01.90 bitrate=   3.0kbits/s speed=0.0824x elapsed=0:00:23.06    \nframe=  117 fps=5.0 q=19.0 size=       1KiB time=00:00:01.93 bitrate=   2.9kbits/s speed=0.0819x elapsed=0:00:23.60    \nframe=  120 fps=5.0 q=24.0 size=       1KiB time=00:00:01.98 bitrate=   2.9kbits/s speed=0.082x elapsed=0:00:24.17    \nframe=  122 fps=4.9 q=23.0 size=       1KiB time=00:00:02.01 bitrate=   2.8kbits/s speed=0.0814x elapsed=0:00:24.76    \nframe=  125 fps=4.9 q=17.0 size=       1KiB time=00:00:02.05 bitrate=   2.8kbits/s speed=0.0807x elapsed=0:00:25.40    \nframe=  128 fps=4.9 q=23.0 size=       1KiB time=00:00:02.11 bitrate=   2.7kbits/s speed=0.0815x elapsed=0:00:25.97    \nframe=  130 fps=4.9 q=25.0 size=       1KiB time=00:00:02.15 bitrate=   2.6kbits/s speed=0.0811x elapsed=0:00:26.51    \nframe=  132 fps=4.9 q=25.0 size=       1KiB time=00:00:02.18 bitrate=   2.6kbits/s speed=0.0806x elapsed=0:00:27.08    \nframe=  134 fps=4.8 q=25.0 size=       1KiB time=00:00:02.21 bitrate=   2.6kbits/s speed=0.0801x elapsed=0:00:27.66    \nframe=  136 fps=4.8 q=25.0 size=       1KiB time=00:00:02.25 bitrate=   2.5kbits/s speed=0.0794x elapsed=0:00:28.32    \nframe=  139 fps=4.8 q=23.0 size=       1KiB time=00:00:02.30 bitrate=   2.5kbits/s speed=0.0796x elapsed=0:00:28.89    \nframe=  142 fps=4.8 q=25.0 size=       1KiB time=00:00:02.35 bitrate=   2.4kbits/s speed=0.0798x elapsed=0:00:29.45    \nframe=  145 fps=4.8 q=7.0 size=       1KiB time=00:00:02.38 bitrate=   2.4kbits/s speed=0.0794x elapsed=0:00:29.99    \nframe=  146 fps=4.8 q=26.0 size=       1KiB time=00:00:02.41 bitrate=   2.4kbits/s speed=0.0791x elapsed=0:00:30.55    \nframe=  148 fps=4.8 q=26.0 size=       1KiB time=00:00:02.45 bitrate=   2.3kbits/s speed=0.0789x elapsed=0:00:31.06    \nframe=  150 fps=4.7 q=26.0 size=       1KiB time=00:00:02.48 bitrate=   2.3kbits/s speed=0.0786x elapsed=0:00:31.59    \nframe=  153 fps=4.8 q=18.0 size=       1KiB time=00:00:02.53 bitrate=   2.2kbits/s speed=0.0789x elapsed=0:00:32.12    \nframe=  156 fps=4.8 q=27.0 size=       1KiB time=00:00:02.58 bitrate=   2.2kbits/s speed=0.0791x elapsed=0:00:32.64    \nframe=  161 fps=4.9 q=10.0 size=       1KiB time=00:00:02.66 bitrate=   2.1kbits/s speed=0.0804x elapsed=0:00:33.16    \nframe=  164 fps=4.9 q=29.0 size=       1KiB time=00:00:02.71 bitrate=   2.1kbits/s speed=0.0807x elapsed=0:00:33.67    \nframe=  166 fps=4.9 q=29.0 size=       1KiB time=00:00:02.75 bitrate=   2.1kbits/s speed=0.0804x elapsed=0:00:34.19    \nframe=  170 fps=4.9 q=30.0 size=       1KiB time=00:00:02.81 bitrate=   2.0kbits/s speed=0.0811x elapsed=0:00:34.72    \nframe=  175 fps=5.0 q=28.0 size=       1KiB time=00:00:02.90 bitrate=   2.0kbits/s speed=0.0823x elapsed=0:00:35.25    \nframe=  179 fps=5.0 q=29.0 size=       1KiB time=00:00:02.96 bitrate=   1.9kbits/s speed=0.0829x elapsed=0:00:35.76    \nframe=  182 fps=5.0 q=31.0 size=       1KiB time=00:00:03.01 bitrate=   1.9kbits/s speed=0.0831x elapsed=0:00:36.28    \nframe=  185 fps=5.0 q=23.0 size=       1KiB time=00:00:03.06 bitrate=   1.9kbits/s speed=0.0833x elapsed=0:00:36.79    \nframe=  190 fps=5.1 q=30.0 size=       1KiB time=00:00:03.15 bitrate=   1.8kbits/s speed=0.0844x elapsed=0:00:37.32    \nframe=  193 fps=5.1 q=15.0 size=       1KiB time=00:00:03.20 bitrate=   1.8kbits/s speed=0.0845x elapsed=0:00:37.85    \nframe=  196 fps=5.1 q=30.0 size=       1KiB time=00:00:03.25 bitrate=   1.8kbits/s speed=0.0847x elapsed=0:00:38.37    \nframe=  198 fps=5.1 q=30.0 size=       1KiB time=00:00:03.28 bitrate=   1.7kbits/s speed=0.0844x elapsed=0:00:38.89    \nframe=  205 fps=5.2 q=25.0 size=       1KiB time=00:00:03.40 bitrate=   1.7kbits/s speed=0.0862x elapsed=0:00:39.42    \nframe=  209 fps=5.2 q=18.0 size=       1KiB time=00:00:03.46 bitrate=   1.6kbits/s speed=0.0868x elapsed=0:00:39.95    \nframe=  213 fps=5.3 q=23.0 size=       1KiB time=00:00:03.53 bitrate=   1.6kbits/s speed=0.0873x elapsed=0:00:40.47    \nframe=  217 fps=5.3 q=26.0 size=       1KiB time=00:00:03.60 bitrate=   1.6kbits/s speed=0.0878x elapsed=0:00:41.00    \nframe=  217 fps=5.2 q=26.0 size=       1KiB time=00:00:03.60 bitrate=   1.6kbits/s speed=0.0867x elapsed=0:00:41.50    \nframe=  221 fps=5.3 q=23.0 size=       1KiB time=00:00:03.66 bitrate=   1.6kbits/s speed=0.0872x elapsed=0:00:42.03    \nframe=  225 fps=5.3 q=19.0 size=       1KiB time=00:00:03.73 bitrate=   1.5kbits/s speed=0.0878x elapsed=0:00:42.54    \nframe=  229 fps=5.3 q=19.0 size=       1KiB time=00:00:03.80 bitrate=   1.5kbits/s speed=0.0883x elapsed=0:00:43.05    \nframe=  233 fps=5.3 q=23.0 size=       1KiB time=00:00:03.86 bitrate=   1.5kbits/s speed=0.0887x elapsed=0:00:43.57    \nframe=  233 fps=5.3 q=23.0 size=       1KiB time=00:00:03.86 bitrate=   1.5kbits/s speed=0.0877x elapsed=0:00:44.08    \nframe=  237 fps=5.3 q=19.0 size=       1KiB time=00:00:03.93 bitrate=   1.4kbits/s speed=0.0882x elapsed=0:00:44.60    \nframe=  241 fps=5.3 q=16.0 size=       1KiB time=00:00:04.00 bitrate=   1.4kbits/s speed=0.0887x elapsed=0:00:45.11    \nframe=  245 fps=5.4 q=19.0 size=       1KiB time=00:00:04.06 bitrate=   1.4kbits/s speed=0.0891x elapsed=0:00:45.63    \nframe=  249 fps=5.4 q=19.0 size=       1KiB time=00:00:04.13 bitrate=   1.4kbits/s speed=0.0896x elapsed=0:00:46.15    \nframe=  249 fps=5.3 q=19.0 size=       1KiB time=00:00:04.13 bitrate=   1.4kbits/s speed=0.0885x elapsed=0:00:46.68    \nframe=  253 fps=5.4 q=19.0 size=       1KiB time=00:00:04.20 bitrate=   1.4kbits/s speed=0.089x elapsed=0:00:47.21    \nframe=  257 fps=5.4 q=11.0 size=       1KiB time=00:00:04.26 bitrate=   1.3kbits/s speed=0.0894x elapsed=0:00:47.73    \nframe=  261 fps=5.4 q=18.0 size=       1KiB time=00:00:04.33 bitrate=   1.3kbits/s speed=0.0898x elapsed=0:00:48.27    \nframe=  265 fps=5.4 q=19.0 size=       1KiB time=00:00:04.40 bitrate=   1.3kbits/s speed=0.0901x elapsed=0:00:48.80    \nframe=  267 fps=5.4 q=24.0 size=       1KiB time=00:00:04.43 bitrate=   1.3kbits/s speed=0.0899x elapsed=0:00:49.32    \nframe=  271 fps=5.4 q=24.0 size=       1KiB time=00:00:04.50 bitrate=   1.3kbits/s speed=0.0903x elapsed=0:00:49.84    \nframe=  275 fps=5.5 q=26.0 size=       1KiB time=00:00:04.56 bitrate=   1.2kbits/s speed=0.0906x elapsed=0:00:50.38    \nframe=  279 fps=5.5 q=26.0 size=       1KiB time=00:00:04.63 bitrate=   1.2kbits/s speed=0.091x elapsed=0:00:50.89    \nframe=  281 fps=5.5 q=22.0 size=       1KiB time=00:00:04.66 bitrate=   1.2kbits/s speed=0.0907x elapsed=0:00:51.42    \nframe=  285 fps=5.5 q=26.0 size=       1KiB time=00:00:04.73 bitrate=   1.2kbits/s speed=0.0911x elapsed=0:00:51.93    \nframe=  295 fps=5.6 q=26.0 size=       1KiB time=00:00:04.90 bitrate=   1.2kbits/s speed=0.0934x elapsed=0:00:52.45    \n[out#0/matroska @ 00000136a9799780] video:5027KiB audio:0KiB subtitle:0KiB other streams:0KiB global headers:0KiB muxing overhead: 0.042407%\nframe=  300 fps=5.7 q=26.0 Lsize=    5029KiB time=00:00:04.98 bitrate=8267.5kbits/s speed=0.0948x elapsed=0:00:52.54    \n",
  "seconds": 52.93508315086365,
  "probe_out": {}
}